<svg width="252" height="272" viewBox="0 0 252 272" fill="none" xmlns="http://www.w3.org/2000/svg">
<path d="M53.3651 4.06015e-06H57.909C69.7979 0.697141 80.7417 7.01064 88.6628 15.6561C99.2669 27.1098 105.716 41.8577 109.064 56.9541C111.919 69.8364 112.406 83.1753 111.013 96.2785C119.092 100.059 125.88 106.662 129.395 114.89C130.08 116.628 131 118.405 130.813 120.33C130.695 121.685 129.873 122.834 129.021 123.845C126.274 126.28 121.43 125.244 120.219 121.704C117.925 114.748 112.549 108.989 105.849 106.038C98.3955 102.71 89.6031 102.351 81.9626 105.277C76.1781 107.467 71.1911 111.851 68.6706 117.526C65.638 124.409 65.5494 132.323 67.3414 139.545C69.3844 147.822 75.0261 155.231 82.7257 159.031C88.1065 161.888 94.5162 162.276 100.36 160.769C106.582 159.34 111.85 154.99 115.001 149.526C116.291 147.459 117.004 144.661 119.579 143.802C122.011 142.795 124.571 144.047 126.284 145.785C126.796 147.42 127.412 149.197 126.688 150.876C122.922 159.595 115.788 167.038 106.75 170.303C98.7204 173.194 89.6031 173.582 81.5638 170.509C76.8181 168.722 72.3628 166.056 68.7001 162.541C60.2523 165.27 50.9134 165.403 42.5591 162.261C30.6701 157.921 21.3263 148.529 14.7443 137.974C4.90821 122.082 0.452914 103.328 0 84.7856V79.6454C0.28061 69.7873 1.62458 59.9341 4.36176 50.4442C8.41336 36.4082 15.3252 22.8337 26.0819 12.7252C33.4713 5.6851 43.0957 0.805148 53.3651 4.06015e-06ZM33.5895 20.7128C24.2653 29.3828 18.5645 41.2243 15.0988 53.2966C10.1266 71.3927 9.92472 90.7849 14.4883 108.984C17.6833 121.326 23.1823 133.423 32.2258 142.614C38.9358 149.443 48.3584 154.165 58.1305 153.355C57.4905 152.393 56.309 152.025 55.4327 151.323C46.4581 145.049 39.5758 136.197 34.4411 126.624C25.5945 109.917 21.6759 90.8389 22.0599 72.0162C31.0738 73.1846 40.713 71.918 48.4815 66.9693C52.3411 64.382 55.861 60.3612 55.8856 55.4764C55.9742 51.1757 53.2617 47.4004 49.9928 44.8524C43.9277 40.2326 36.1445 38.4603 28.632 38.3131C32.6935 28.234 38.9063 18.7392 47.8267 12.3079C42.4951 13.9182 37.6263 16.908 33.5895 20.7128ZM59.5089 89.7244C53.4586 90.7112 48.3092 95.5568 46.9455 101.512C45.0354 108.793 49.2347 117.035 56.2942 119.711C58.1699 111.89 62.6744 104.659 69.1826 99.8575C71.0336 98.3503 73.2194 97.3635 75.1837 96.033C71.6244 91.2905 65.4116 88.5805 59.5089 89.7244Z" fill="black"/>
<path d="M193.68 0H198.204C206.396 0.535126 214.268 3.67224 220.859 8.49819C230.627 15.6856 237.75 25.9315 242.703 36.8746C248.787 50.4098 251.687 65.2461 251.982 80.0382C252.293 98.7283 248.502 117.738 239.458 134.223C234.915 142.378 229.051 149.948 221.539 155.594C214.351 161.053 205.519 164.618 196.407 164.622C186.074 164.77 176.09 160.366 168.341 153.724C157.584 144.513 150.402 131.813 145.917 118.543C139.108 97.771 138.449 75.0797 143.662 53.8759C147.507 38.6862 154.596 23.8892 166.047 12.9363C173.525 5.78329 183.258 0.785506 193.68 0ZM171.856 22.5588C162.438 32.5052 156.935 45.5103 153.966 58.7166C150.22 76.0615 150.599 94.3393 155.374 111.449C158.874 123.683 164.747 135.637 174.273 144.327C180.767 150.238 189.51 154.131 198.43 153.326C197.431 152.265 196.057 151.676 194.92 150.793C185.808 144.214 178.965 134.97 173.845 125.077C165.589 108.719 161.922 90.2546 162.276 72.0014C170.729 73.1306 179.718 72.0653 187.236 67.8628C191.208 65.5996 194.945 62.1188 195.895 57.4843C196.914 52.84 194.33 48.1712 190.78 45.309C184.671 40.3701 176.631 38.4309 168.893 38.3376C172.855 28.2193 179.157 18.754 188.067 12.3324C181.82 14.1195 176.366 17.9783 171.856 22.5588ZM199.656 89.7392C192.606 90.9272 186.871 97.4027 186.758 104.57C186.295 112.19 192.232 119.52 199.794 120.683C205.209 121.665 211.028 119.554 214.538 115.327C218.068 111.218 219.2 105.243 217.408 100.132C215.119 92.9352 207.085 88.2123 199.656 89.7392Z" fill="black"/>
<path d="M175.972 180.441C179.255 179.076 183.41 180.573 184.956 183.789C186.167 185.846 185.419 188.374 186.404 190.51C188.466 195.39 193.306 198.6 198.327 199.857C205.894 201.742 214.671 199.715 219.939 193.784C222.44 190.971 227.235 190.775 229.937 193.406C232.615 195.679 233.049 200.009 230.947 202.803C224.133 210.992 213.249 215.067 202.723 214.802C202.856 221.611 202.044 228.415 200.66 235.077C199.966 238.2 199.415 241.489 197.495 244.145C193.995 249.207 188.304 252.177 182.711 254.386C183.588 255.977 184.208 257.808 183.839 259.649C183.302 263.513 179.147 266.331 175.337 265.457C171.955 264.725 170.089 261.47 167.248 259.772C159.239 253.91 149.181 251.367 139.335 251.455C131.522 251.19 124.093 254.229 117.265 257.715C111.658 260.724 106.282 264.2 101.374 268.26C99.6509 269.586 98.1247 271.387 95.8996 271.834C92.6947 272.561 89.1009 270.842 87.8209 267.794C87.4468 267.597 87.0776 267.396 86.7133 267.185C86.8659 267.2 87.176 267.219 87.3287 267.234C87.0234 264.779 87.1514 262.001 88.9975 260.135C91.5723 257.617 94.5457 255.555 97.3469 253.301C89.5735 254.651 81.9331 257.617 75.7154 262.531C74.5092 263.518 73.4016 264.73 71.8557 265.187C69.4386 266.09 66.5734 265.457 64.6633 263.763C62.5169 261.736 61.739 258.397 62.9452 255.682C63.7181 253.772 65.4657 252.56 66.9377 251.224C55.8807 250.331 44.7449 254.357 36.3808 261.529C34.5445 263.027 32.9495 265.108 30.4388 265.467C26.6678 266.306 22.6851 263.508 22.0943 259.728C21.5922 257.189 22.6851 254.533 24.6346 252.884C30.2615 247.67 36.7845 243.379 43.9622 240.61C41.4662 232.745 39.5906 224.665 38.798 216.441C33.1316 217.222 27.3914 217.345 21.6857 217.04C18.2593 216.952 15.1874 214.095 14.9363 210.678C14.4145 206.804 17.6981 202.911 21.6315 202.852C29.208 203.004 37.1291 203.279 44.2526 200.275C48.6538 198.296 52.794 194.825 54.0592 190.004C54.4973 187.849 55.6592 185.703 57.6874 184.668C61.0843 182.64 65.9876 184.118 67.6072 187.746C68.7986 189.96 68.3014 192.557 67.5481 194.825C65.9679 200.073 62.5316 204.575 58.4456 208.154C71.1616 216.495 85.3988 222.671 100.365 225.592C123.478 229.957 147.847 226.206 168.991 216.083C173.87 213.785 178.586 211.159 183.169 208.326C176.572 203.48 171.477 195.895 171.487 187.51C171.27 184.506 173.18 181.55 175.972 180.441ZM54.0592 222.298C54.6352 225.848 55.5262 229.338 56.5158 232.795C56.9933 229.839 56.6388 226.81 56.7176 223.825C55.8315 223.305 54.9502 222.794 54.0592 222.298ZM150.18 237.886C152.597 239.015 155.33 238.71 157.767 239.751C161.513 240.654 165.141 242.073 168.518 243.929C173.52 242.687 178.522 241.126 182.967 238.465C184.188 237.635 185.729 236.801 185.99 235.2C187.088 230.855 187.797 226.417 188.205 221.959C176.38 229.024 163.615 234.665 150.18 237.886ZM70.9991 231.145C71.0238 233.212 70.9991 235.279 71.0287 237.35C76.252 237.949 81.2832 239.52 86.2013 241.307C89.1354 240.507 92.0793 239.722 95.0774 239.187C93.8073 238.617 92.4092 238.47 91.08 238.107C84.2075 236.354 77.4778 234.037 70.9991 231.145Z" fill="black"/>
<path d="M33.5895 20.7128C37.6263 16.908 42.4951 13.9182 47.8267 12.3079C38.9063 18.7392 32.6935 28.234 28.632 38.3131C36.1445 38.4603 43.9277 40.2326 49.9928 44.8524C53.2617 47.4004 55.9742 51.1757 55.8856 55.4764C55.861 60.3612 52.3411 64.382 48.4815 66.9693C40.713 71.918 31.0738 73.1846 22.0599 72.0162C21.6759 90.8389 25.5945 109.917 34.4411 126.624C39.5758 136.197 46.4581 145.049 55.4327 151.323C56.309 152.025 57.4905 152.393 58.1305 153.355C48.3584 154.165 38.9358 149.443 32.2258 142.614C23.1823 133.423 17.6833 121.326 14.4883 108.984C9.92472 90.7849 10.1266 71.3927 15.0988 53.2966C18.5645 41.2243 24.2653 29.3828 33.5895 20.7128Z" fill="white"/>
<path d="M171.856 22.5588C176.366 17.9783 181.82 14.1195 188.067 12.3324C179.157 18.754 172.855 28.2193 168.893 38.3376C176.631 38.4309 184.671 40.3701 190.78 45.309C194.33 48.1712 196.914 52.84 195.895 57.4843C194.945 62.1188 191.208 65.5996 187.236 67.8628C179.718 72.0653 170.729 73.1306 162.276 72.0014C161.922 90.2546 165.589 108.719 173.845 125.077C178.965 134.97 185.808 144.214 194.92 150.793C196.057 151.676 197.431 152.265 198.43 153.326C189.51 154.131 180.767 150.238 174.273 144.327C164.747 135.637 158.874 123.683 155.374 111.449C150.599 94.3393 150.22 76.0615 153.966 58.7166C156.935 45.5103 162.438 32.5052 171.856 22.5588Z" fill="white"/>
<path d="M59.5089 89.7244C65.4116 88.5805 71.6244 91.2905 75.1837 96.033C73.2194 97.3635 71.0336 98.3503 69.1826 99.8575C62.6744 104.659 58.1699 111.89 56.2942 119.711C49.2347 117.035 45.0354 108.793 46.9455 101.512C48.3092 95.5568 53.4586 90.7112 59.5089 89.7244Z" fill="white"/>
<path d="M199.656 89.7392C207.085 88.2123 215.119 92.9352 217.408 100.132C219.2 105.243 218.068 111.218 214.538 115.327C211.028 119.554 205.209 121.665 199.794 120.683C192.232 119.52 186.295 112.19 186.758 104.57C186.871 97.4027 192.606 90.9272 199.656 89.7392Z" fill="white"/>
<path d="M81.9626 105.277C89.6031 102.351 98.3955 102.71 105.849 106.038C112.549 108.989 117.925 114.748 120.219 121.704C121.43 125.244 126.274 126.28 129.021 123.845C130.444 131.204 129.523 139.01 126.284 145.785C124.571 144.047 122.011 142.795 119.579 143.802C117.004 144.661 116.291 147.459 115.001 149.526C111.85 154.99 106.582 159.34 100.36 160.769C94.5162 162.276 88.1065 161.888 82.7257 159.031C75.0261 155.231 69.3844 147.822 67.3414 139.545C65.5494 132.323 65.638 124.409 68.6706 117.526C71.1911 111.851 76.1781 107.467 81.9626 105.277Z" fill="#FFCA05"/>
<path d="M36.3808 261.529C44.7449 254.357 55.8807 250.331 66.9377 251.224C65.4657 252.56 63.7181 253.772 62.9452 255.682C61.739 258.397 62.5169 261.736 64.6633 263.763L65.0325 264.18C55.4524 265.692 45.5375 264.686 36.3808 261.529Z" fill="#FFCA05"/>
<path d="M117.265 257.715C124.093 254.229 131.522 251.19 139.335 251.455C149.181 251.367 159.239 253.91 167.248 259.772C158.8 263.405 149.919 266.213 140.743 267.244C131.744 268.329 122.617 267.823 113.676 266.444C109.448 267.484 105.184 268.55 100.803 268.741L101.374 268.26C106.282 264.2 111.658 260.724 117.265 257.715Z" fill="#FFCA05"/>
<path d="M75.7154 262.531C81.9331 257.617 89.5735 254.651 97.3469 253.301C94.5457 255.555 91.5723 257.617 88.9975 260.135C87.1514 262.001 87.0234 264.779 87.3287 267.234C87.176 267.219 86.8659 267.2 86.7133 267.185C82.8537 266.149 79.2057 264.455 75.7154 262.531Z" fill="#FFCA05"/>
<path d="M54.0592 222.298C54.9502 222.794 55.8315 223.305 56.7176 223.825C56.6388 226.81 56.9933 229.839 56.5158 232.795C55.5262 229.338 54.6352 225.848 54.0592 222.298Z" fill="#C44055"/>
<path d="M150.18 237.886C163.615 234.665 176.38 229.024 188.205 221.959C187.797 226.417 187.088 230.855 185.99 235.2C185.729 236.801 184.188 237.635 182.967 238.465C178.522 241.126 173.52 242.687 168.518 243.929C165.141 242.073 161.513 240.654 157.767 239.751C155.33 238.71 152.597 239.015 150.18 237.886Z" fill="#FFF9F6"/>
<path d="M70.9991 231.145C77.4778 234.037 84.2075 236.354 91.08 238.107C92.4092 238.47 93.8073 238.617 95.0774 239.187C92.0793 239.722 89.1354 240.507 86.2013 241.307C81.2832 239.52 76.252 237.949 71.0287 237.35C70.9991 235.279 71.0238 233.212 70.9991 231.145Z" fill="#FFF9F6"/>
</svg>
