<svg width="251" height="255" viewBox="0 0 251 255" fill="none" xmlns="http://www.w3.org/2000/svg">
<path d="M53.2008 3.80189e-06H57.6579C69.0287 0.662387 79.5561 6.51099 87.3572 14.6068C97.7865 25.4502 104.337 39.5173 107.946 54.0014C111.81 69.7613 112.354 86.3307 109.633 102.321C118.13 103.562 126.427 107.071 132.644 113.101C136.861 117.193 140.117 122.315 141.867 127.938C142.539 129.96 141.701 132.114 140.264 133.576C137.552 136.039 132.713 134.969 131.507 131.461C129.187 124.351 123.637 118.503 116.772 115.608C109.02 112.272 99.8459 112.119 92.1085 115.579C86.8865 117.865 82.4882 122.055 80.1592 127.276C77.0995 134.272 77.0456 142.319 78.9333 149.635C81.1349 158.236 87.2837 165.817 95.4624 169.369C101.332 172.063 108.191 171.847 114.198 169.732C120.312 167.559 124.97 162.461 127.697 156.686C128.457 154.801 130.271 153.334 132.33 153.217C134.35 152.976 136.228 154.119 137.489 155.611C138.366 157.363 138.616 159.492 137.675 161.273C133.899 169.452 127.25 176.484 118.763 179.751C110.609 182.896 101.243 183.372 93.0156 180.227C83.8317 176.812 76.0747 169.806 71.6372 161.082C62.5122 165.213 51.7789 165.674 42.3792 162.161C31.2242 158.079 22.2806 149.473 15.8328 139.684C5.22692 123.473 0.480524 103.975 0 84.7507V79.6185C0.480524 61.3367 4.83956 42.8734 14.3765 27.1479C20.4958 17.2073 28.9197 8.23319 39.7265 3.4444C43.963 1.47687 48.5721 0.475939 53.2008 3.80189e-06ZM28.4931 26.0047C21.1921 35.0965 16.6467 46.1362 13.9744 57.4164C9.77718 75.8012 10.243 95.3047 15.671 113.385C19.2455 124.822 24.8941 135.985 33.8279 144.174C40.2953 150.106 48.9889 154.002 57.8884 153.261C57.5402 152.422 56.5498 152.201 55.8829 151.681C45.4046 144.557 37.7603 133.963 32.3471 122.639C24.9333 106.879 21.5941 89.3236 21.9766 71.9447C30.4789 73.0781 39.5059 71.9692 47.0374 67.6858C51.1807 65.2472 55.0837 61.4005 55.6034 56.386C56.1281 51.8916 53.446 47.7456 50.0676 45.0323C44.0169 40.2189 36.1177 38.433 28.5225 38.2661C32.5628 28.2372 38.692 18.743 47.5669 12.3596C39.8786 14.5724 33.4797 19.896 28.4931 26.0047ZM59.1093 89.6867C52.9557 90.7563 47.7876 95.8739 46.6353 102.017C45.4046 107.802 47.817 114.175 52.6026 117.659C56.5204 120.672 61.9091 121.619 66.6212 120.127C72.2943 118.459 76.7269 113.307 77.5408 107.444C78.4332 101.83 75.9669 95.8297 71.3577 92.5129C67.9205 89.8928 63.3409 88.882 59.1093 89.6867Z" fill="black"/>
<path d="M192.915 0H197.387C206.625 0.574066 215.397 4.55818 222.482 10.4166C231.598 18.0512 238.207 28.2911 242.758 39.2033C248.377 52.7012 250.931 67.3718 251 81.9638C251 100.481 246.989 119.258 237.776 135.435C232.078 145.322 224.252 154.321 214.063 159.718C206.826 163.633 198.368 165.331 190.199 164.183C180.79 162.917 172.13 158.064 165.354 151.529C155.876 142.54 149.482 130.745 145.329 118.459C138.837 98.6019 137.984 76.9984 142.436 56.6117C145.824 41.5192 152.311 26.7848 162.947 15.382C170.728 6.9722 181.349 0.853739 192.915 0ZM171.39 22.3199C161.878 32.2802 156.327 45.3806 153.346 58.6823C149.521 76.5176 150.007 95.344 155.185 112.86C158.803 124.867 164.8 136.559 174.342 144.925C180.701 150.44 189.081 153.997 197.598 153.241C196.872 152.206 195.563 151.808 194.607 151.023C183.619 143.153 175.788 131.579 170.493 119.283C164.143 104.397 161.319 88.1068 161.623 71.9594C169.708 73.0192 178.23 72.0771 185.551 68.3334C189.88 66.0421 194.078 62.4358 195.117 57.4262C196.137 52.7895 193.558 48.1234 190.023 45.2727C183.947 40.2778 175.901 38.4673 168.198 38.2367C172.233 28.2077 178.382 18.7087 187.286 12.3596C181.162 14.0523 175.842 17.8794 171.39 22.3199ZM198.883 89.672C191.832 90.8201 186.105 97.3606 186.012 104.534C185.708 110.569 189.297 116.535 194.7 119.195C200.015 121.869 206.836 121.201 211.45 117.399C215.564 114.161 217.893 108.739 217.295 103.513C216.795 98.2241 213.392 93.2881 208.572 91.0262C205.61 89.5199 202.143 89.0734 198.883 89.672Z" fill="black"/>
<path d="M117.439 205.398C125.475 204.137 134.007 205.187 141.215 209.078C147.148 212.12 152.218 217.306 154.253 223.748C156.219 229.813 155.077 236.726 151.414 241.922C147.442 247.736 141.137 251.662 134.429 253.546C125.529 256.063 115.698 255.317 107.363 251.274C100.915 248.085 95.3006 242.565 93.3098 235.509C91.3338 228.807 93.2461 221.31 97.7179 216.035C102.631 210.123 109.942 206.61 117.439 205.398ZM118.4 215.294C113.634 216.197 108.932 218.327 105.656 221.997C103.425 224.455 102.116 227.811 102.523 231.152C102.974 235.185 105.774 238.546 109.015 240.779C114.938 244.758 122.499 245.867 129.442 244.562C134.174 243.62 138.827 241.48 142.078 237.83C144.53 235.107 145.952 231.25 145.04 227.605C144.039 223.395 140.759 220.122 137.077 218.066C131.438 214.961 124.696 214.131 118.4 215.294Z" fill="black"/>
<path d="M28.4931 26.0047C33.4797 19.896 39.8786 14.5724 47.5669 12.3596C38.692 18.743 32.5628 28.2372 28.5225 38.2661C36.1177 38.433 44.0169 40.2189 50.0676 45.0323C53.446 47.7456 56.1281 51.8916 55.6034 56.386C55.0837 61.4005 51.1807 65.2472 47.0374 67.6858C39.5059 71.9692 30.4789 73.0781 21.9766 71.9447C21.5941 89.3236 24.9333 106.879 32.3471 122.639C37.7603 133.963 45.4046 144.557 55.8829 151.681C56.5498 152.201 57.5402 152.422 57.8884 153.261C48.9889 154.002 40.2953 150.106 33.8279 144.174C24.8941 135.985 19.2455 124.822 15.671 113.385C10.243 95.3047 9.77718 75.8012 13.9744 57.4164C16.6467 46.1362 21.1921 35.0965 28.4931 26.0047Z" fill="white"/>
<path d="M171.39 22.3199C175.842 17.8794 181.162 14.0523 187.286 12.3596C178.382 18.7087 172.233 28.2077 168.198 38.2367C175.901 38.4673 183.947 40.2778 190.023 45.2727C193.558 48.1234 196.137 52.7895 195.117 57.4262C194.078 62.4358 189.88 66.0421 185.551 68.3334C178.23 72.0771 169.708 73.0192 161.623 71.9594C161.319 88.1068 164.143 104.397 170.493 119.283C175.788 131.579 183.619 143.153 194.607 151.023C195.563 151.808 196.872 152.206 197.598 153.241C189.081 153.997 180.701 150.44 174.342 144.925C164.8 136.559 158.803 124.867 155.185 112.86C150.007 95.344 149.521 76.5176 153.346 58.6823C156.327 45.3806 161.878 32.2802 171.39 22.3199Z" fill="white"/>
<path d="M59.1093 89.6867C63.3409 88.882 67.9205 89.8928 71.3577 92.5129C75.9669 95.8297 78.4332 101.83 77.5408 107.444C76.7269 113.307 72.2943 118.459 66.6212 120.127C61.9091 121.619 56.5204 120.672 52.6026 117.659C47.817 114.175 45.4046 107.802 46.6353 102.017C47.7876 95.8739 52.9557 90.7563 59.1093 89.6867Z" fill="white"/>
<path d="M198.883 89.672C202.143 89.0734 205.61 89.5199 208.572 91.0262C213.392 93.2881 216.795 98.2241 217.295 103.513C217.893 108.739 215.564 114.161 211.45 117.399C206.836 121.201 200.015 121.869 194.7 119.195C189.297 116.535 185.708 110.569 186.012 104.534C186.105 97.3606 191.832 90.8201 198.883 89.672Z" fill="white"/>
<path d="M92.1085 115.579C99.8459 112.119 109.02 112.272 116.772 115.608C123.637 118.503 129.187 124.351 131.507 131.461C132.713 134.969 137.552 136.039 140.264 133.576C141.701 140.965 140.779 148.83 137.489 155.611C136.228 154.119 134.35 152.976 132.33 153.217C130.271 153.334 128.457 154.801 127.697 156.686C124.97 162.461 120.312 167.559 114.198 169.732C108.191 171.847 101.332 172.063 95.4624 169.369C87.2837 165.817 81.1349 158.236 78.9333 149.635C77.0456 142.319 77.0995 134.272 80.1592 127.276C82.4882 122.055 86.8865 117.865 92.1085 115.579Z" fill="#FFCA05"/>
<path d="M118.4 215.294C124.696 214.131 131.438 214.961 137.077 218.066C140.759 220.122 144.039 223.395 145.04 227.605C145.952 231.25 144.53 235.107 142.078 237.83C138.827 241.48 134.174 243.62 129.442 244.562C122.499 245.867 114.938 244.758 109.015 240.779C105.774 238.546 102.974 235.185 102.523 231.152C102.116 227.811 103.425 224.455 105.656 221.997C108.932 218.327 113.634 216.197 118.4 215.294Z" fill="#C44055"/>
</svg>
