<svg width="235" height="223" viewBox="0 0 235 223" fill="none" xmlns="http://www.w3.org/2000/svg">
<path d="M164.304 8.42721C170.668 2.72742 179.271 -0.309199 187.804 0.0249271C196.278 0.152681 204.644 3.51851 210.782 9.37063C219.448 17.4388 224.288 28.691 227.318 39.9284C231.951 57.9221 232.413 76.7658 230.711 95.1919C229.811 105.638 227.529 115.888 225.257 126.103C227.082 127.897 229.044 129.543 230.834 131.371C232.374 132.933 234.159 134.373 235 136.476V140.815C233.972 143.837 230.775 145.945 227.578 145.414C225.439 145.203 223.826 143.679 222.448 142.171C220.722 140.436 218.971 138.717 217.053 137.193C211.077 132.732 204.851 128.58 198.245 125.106C189.574 120.649 179.91 117.564 170.059 118.08C160.001 118.635 150.262 122.428 142.073 128.221C139.477 130.128 135.606 129.803 133.353 127.504C130.648 124.944 130.702 120.153 133.545 117.721C136.226 115.529 139.304 113.893 142.27 112.124C140.254 92.1307 140.131 71.8031 143.726 51.9717C145.526 42.282 148.192 32.6661 152.692 23.8609C155.628 18.1021 159.42 12.707 164.304 8.42721ZM168.254 24.1999C162.696 32.1796 159.804 41.6531 157.753 51.0627C154 69.3806 153.779 88.2588 155.436 106.832C160.311 105.535 165.308 104.601 170.364 104.488C169.331 98.5184 168.662 92.4796 168.529 86.4211C168.396 85.0551 170.039 84.6915 171.062 84.4212C177.608 83.3108 184.528 84.0429 190.809 81.532C193.73 80.4314 196.283 77.8665 196.583 74.648C196.927 71.5132 195.053 68.678 192.973 66.516C187.637 61.1012 180.613 57.8877 174.638 53.3033C173.118 51.9717 170.88 50.3502 171.578 48.0261C174.121 36.0418 177.997 24.1655 184.474 13.6897C177.756 14.4071 172.026 18.7851 168.254 24.1999Z" fill="black"/>
<path d="M55.3931 1.25333C65.2297 -0.549966 75.9073 1.83805 83.7225 8.16679C90.6328 13.6995 95.2412 21.6006 98.2316 29.8211C101.901 39.9235 103.371 50.6843 103.834 61.3764C104.227 72.2846 103.548 83.2272 101.935 94.0224C112.76 97.8354 121.908 106.67 125.145 117.785C125.622 119.686 124.82 121.706 123.438 123.032C120.787 125.504 115.957 124.487 114.683 121.052C113.173 116.532 110.508 112.37 106.814 109.323C100.061 103.653 90.7164 101.476 82.0798 102.936C75.2876 104.012 68.7512 107.687 64.9444 113.51C61.1524 119.219 60.2032 126.364 60.8376 133.071C61.5065 140.849 64.8657 148.519 70.7087 153.797C75.7204 158.376 82.4979 161.378 89.3786 160.833C94.5133 160.558 99.6874 158.922 103.676 155.6C106.76 153.06 109.126 149.748 110.837 146.151C111.59 144.456 113.114 143.046 114.998 142.775C117.172 142.372 119.415 143.424 120.644 145.227C121.544 146.775 121.771 148.745 121.003 150.396C117.944 157.143 113.046 163.177 106.617 166.965C100.14 170.812 92.4329 172.311 84.962 171.795C74.2794 170.827 64.369 164.729 58.0637 156.155C50.2928 145.709 47.9812 131.764 50.7551 119.17C37.3576 115.058 22.5436 117.952 10.7348 125.14C7.76903 127.234 3.2491 126.506 1.21783 123.46C-0.921633 120.581 -0.154376 116.06 2.83104 114.055C5.66399 112.277 8.674 110.788 11.7086 109.378C11.1184 88.1163 12.7414 66.6094 18.5549 46.0803C22.1502 33.7962 27.2898 21.5417 36.2067 12.1272C41.3365 6.72219 47.991 2.58984 55.3931 1.25333ZM52.1765 16.7607C46.3335 19.9644 42.212 25.4873 39.0347 31.2018C34.928 38.7934 32.1786 47.0384 30.1523 55.4063C26.2619 71.6213 24.9733 88.362 25.2241 105.004C30.1769 104.002 35.2427 103.516 40.2938 103.727C39.7184 97.5357 39.438 91.2806 39.8807 85.0698C40.7119 83.8463 42.33 83.8513 43.6432 83.694C49.5599 83.4139 55.5947 84.1756 61.4032 82.7064C64.3395 81.9792 67.3249 80.2152 68.343 77.208C69.6266 73.9847 68.0626 70.501 66.0019 67.995C61.054 61.8874 53.9766 58.1039 48.2172 52.8709C46.8598 51.5049 44.9416 49.7802 45.7384 47.6379C49.1419 35.8108 53.9618 24.254 61.1917 14.2302C58.0489 14.4218 54.9307 15.2178 52.1765 16.7607Z" fill="black"/>
<path d="M40.8889 159.295C43.9432 157.344 48.3549 158.239 50.4059 161.226C51.8666 163.172 52.1224 165.889 51.183 168.12C49.1665 173.112 45.9942 177.623 41.9808 181.215C55.3094 194.629 72.9859 203.233 91.4148 207.016C109.003 210.618 127.614 210.583 144.798 205.011C155.22 201.626 165.052 196.28 173.3 189.037C169.542 185.583 166.37 181.495 164.004 176.974C162.716 174.724 161.619 172.026 162.622 169.446C163.837 165.378 168.991 163.373 172.69 165.412C175.651 166.823 176.28 170.311 178.061 172.763C182.581 179.991 190.627 184.679 199.072 185.499C201.467 185.833 204.143 185.376 206.252 186.821C208.795 188.384 210.163 191.602 209.405 194.501C208.731 197.626 205.716 200.009 202.519 199.965C196.799 199.96 191.099 198.815 185.753 196.791C170.713 211.763 150.139 220.298 129.271 223H101.114C88.4441 221.516 75.9172 218.425 64.2411 213.246C51.1043 207.429 38.9118 199.174 29.2916 188.452C22.519 190.654 15.3531 191.577 8.24119 191.415C5.75252 191.386 3.45567 189.833 2.28019 187.676C0.475168 184.512 1.69983 180.139 4.80328 178.271C7.61656 176.527 11.0741 177.451 14.1825 177.013C22.0862 176.463 30.6785 173.962 35.4886 167.216C37.5396 164.739 37.9183 160.97 40.8889 159.295Z" fill="black"/>
<path d="M168.254 24.1999C172.026 18.7851 177.756 14.4071 184.474 13.6897C177.997 24.1655 174.121 36.0418 171.578 48.0261C170.88 50.3502 173.118 51.9717 174.638 53.3033C180.613 57.8877 187.637 61.1012 192.973 66.516C195.053 68.678 196.927 71.5132 196.583 74.648C196.283 77.8665 193.73 80.4314 190.809 81.532C184.528 84.0429 177.608 83.3108 171.062 84.4212C170.039 84.6915 168.396 85.0551 168.529 86.4211C168.662 92.4796 169.331 98.5184 170.364 104.488C165.308 104.601 160.311 105.535 155.436 106.832C153.779 88.2588 154 69.3806 157.753 51.0627C159.804 41.6531 162.696 32.1796 168.254 24.1999Z" fill="white"/>
<path d="M52.1765 16.7607C54.9307 15.2178 58.0489 14.4218 61.1917 14.2302C53.9618 24.254 49.1419 35.8108 45.7384 47.6379C44.9416 49.7802 46.8598 51.5049 48.2172 52.8709C53.9766 58.1039 61.054 61.8874 66.0019 67.995C68.0626 70.501 69.6266 73.9847 68.343 77.208C67.3249 80.2152 64.3395 81.9792 61.4032 82.7064C55.5947 84.1756 49.5599 83.4139 43.6432 83.694C42.33 83.8513 40.7119 83.8463 39.8807 85.0698C39.438 91.2806 39.7184 97.5357 40.2938 103.727C35.2427 103.516 30.1769 104.002 25.2241 105.004C24.9733 88.362 26.2619 71.6213 30.1523 55.4063C32.1786 47.0384 34.928 38.7934 39.0347 31.2018C42.212 25.4873 46.3335 19.9644 52.1765 16.7607Z" fill="white"/>
<path d="M82.0798 102.936C90.7164 101.476 100.061 103.653 106.814 109.323C110.508 112.37 113.173 116.532 114.683 121.052C115.957 124.487 120.787 125.504 123.438 123.032C124.923 130.486 123.895 138.368 120.644 145.227C119.415 143.424 117.172 142.372 114.998 142.775C113.114 143.046 111.59 144.456 110.837 146.151C109.126 149.748 106.76 153.06 103.676 155.6C99.6874 158.922 94.5133 160.558 89.3786 160.833C82.4979 161.378 75.7204 158.376 70.7087 153.797C64.8657 148.519 61.5065 140.849 60.8376 133.071C60.2032 126.364 61.1524 119.219 64.9444 113.51C68.7512 107.687 75.2876 104.012 82.0798 102.936Z" fill="#FFCA05"/>
</svg>
