<svg width="54" height="63" viewBox="0 0 252 295" fill="none" xmlns="http://www.w3.org/2000/svg">
<path d="M53.4308 4.39833e-06H57.8316C67.9527 0.584445 77.5224 5.2305 84.9408 11.9933C94.5893 20.6863 101.161 32.2916 105.508 44.4027C111.218 60.6836 112.902 78.2561 111.09 95.3718C118.258 99.2812 124.209 105.46 127.424 112.989C128.103 114.693 128.994 116.446 128.841 118.337C128.748 119.722 127.911 120.896 127.049 121.927C125.11 123.479 122.132 123.818 120.118 122.227C118.41 121.102 118.011 118.985 117.209 117.252C114.295 110.543 108.245 105.464 101.368 103.122C93.5851 100.445 84.6455 100.759 77.291 104.58C71.7087 107.39 67.3669 112.537 65.5947 118.528C63.5764 125.173 63.7979 132.427 65.7719 139.053C68.312 147.755 75.002 155.245 83.5871 158.349C89.0168 160.402 95.1209 160.029 100.561 158.216C106.094 156.34 110.568 152.072 113.374 147.029C114.378 145.305 115.013 143.144 116.943 142.196C119.419 140.776 122.614 141.818 124.258 144.013C125.061 145.663 125.376 147.638 124.563 149.347C121.438 156.188 116.402 162.278 109.815 166.04C103.45 169.723 95.9233 171.104 88.6279 170.652C81.3571 170.077 74.4949 166.934 68.7748 162.519C59.8696 165.578 49.8815 165.411 41.1684 161.792C29.9102 157.224 21.0641 148.168 14.7336 138.016C4.90299 122.114 0.452887 103.353 0 84.7979V79.7147C0.27567 70.0837 1.55064 60.4528 4.16459 51.1656C8.18149 36.8738 15.1422 23.024 26.0705 12.7447C33.4693 5.67743 43.1276 0.775984 53.4308 4.39833e-06ZM33.5776 20.7305C24.2639 29.3939 18.5683 41.2301 15.1028 53.297C9.75675 72.7898 9.88474 93.8101 15.6443 113.2C19.1591 124.569 24.7315 135.644 33.4939 143.895C40.0854 150.064 49.0447 154.243 58.2304 153.369C57.9399 153.084 57.6249 152.824 57.2951 152.593C47.3808 146.316 39.9279 136.828 34.4194 126.603C25.6176 109.904 21.6647 90.8437 22.1028 72.0384C31.0916 73.2024 40.7204 71.9598 48.4638 67.0142C52.2247 64.5045 55.6607 60.6934 55.8773 55.9688C56.1678 51.6321 53.544 47.7129 50.2803 45.1001C44.2057 40.2773 36.2506 38.4699 28.6205 38.3373C32.7211 28.2692 38.9089 18.7856 47.8091 12.3224C42.4729 13.9284 37.6142 16.9242 33.5776 20.7305ZM59.0623 89.8516C53.416 90.9615 48.6164 95.4357 47.11 100.976C45.1065 107.591 48.2029 115.169 54.1052 118.7C54.6614 116.436 55.3211 114.192 56.217 112.041C59.4463 104.173 65.7916 97.8078 73.4267 94.1146C69.7347 90.436 64.1721 88.7269 59.0623 89.8516Z" fill="black"/>
<path d="M33.5776 20.7305C37.6142 16.9242 42.4729 13.9284 47.8091 12.3224C38.9089 18.7856 32.7211 28.2692 28.6205 38.3373C36.2506 38.4699 44.2057 40.2773 50.2803 45.1001C53.544 47.7129 56.1678 51.6321 55.8773 55.9688C55.6607 60.6934 52.2247 64.5045 48.4638 67.0142C40.7204 71.9598 31.0916 73.2024 22.1028 72.0384C21.6647 90.8437 25.6176 109.904 34.4194 126.603C39.9279 136.828 47.3808 146.316 57.2951 152.593C57.6249 152.824 57.9399 153.084 58.2304 153.369C49.0447 154.243 40.0854 150.064 33.4939 143.895C24.7315 135.644 19.1591 124.569 15.6443 113.2C9.88474 93.8101 9.75675 72.7898 15.1028 53.297C18.5683 41.2301 24.2639 29.3939 33.5776 20.7305Z" fill="white"/>
<path d="M59.0623 89.8516C64.1721 88.7269 69.7347 90.436 73.4267 94.1146C65.7916 97.8078 59.4463 104.173 56.217 112.041C55.3211 114.192 54.6614 116.436 54.1052 118.7C48.2029 115.169 45.1065 107.591 47.11 100.976C48.6164 95.4357 53.416 90.9615 59.0623 89.8516Z" fill="white"/>
<path d="M77.291 104.58C84.6455 100.759 93.5851 100.445 101.368 103.122C108.245 105.464 114.295 110.543 117.209 117.252C118.011 118.985 118.41 121.102 120.118 122.227C122.132 123.818 125.11 123.479 127.049 121.927C128.477 129.343 127.522 137.196 124.258 144.013C122.614 141.818 119.419 140.776 116.943 142.196C115.013 143.144 114.378 145.305 113.374 147.029C110.568 152.072 106.094 156.34 100.561 158.216C95.1209 160.029 89.0168 160.402 83.5871 158.349C75.002 155.245 68.312 147.755 65.7719 139.053C63.7979 132.427 63.5764 125.173 65.5947 118.528C67.3669 112.537 71.7087 107.39 77.291 104.58Z" fill="#FFCA05"/>
<path d="M134 95 Q 187 50 240 95" stroke="black" stroke-width="14" fill="none" stroke-linecap="round"/>
<path d="M52 218 Q 126 282 200 218" stroke="black" stroke-width="14" fill="none" stroke-linecap="round"/>

</svg>
