<svg width="145" height="149" viewBox="0 0 145 149" fill="none" xmlns="http://www.w3.org/2000/svg">
<path d="M82.9104 1.98285C87.2191 0.318929 91.9051 -0.197639 96.4981 0.0645391C103.466 0.485062 110.254 2.61623 116.475 5.74419C122.133 8.6593 127.39 12.47 131.582 17.3034C137.985 24.5172 142.696 33.426 144.198 43.0305V53.2736C143.511 57.4399 141.807 61.4557 139.109 64.7134C135.816 68.8226 131.714 72.6852 126.506 74.0532C125.682 77.9339 123.813 81.5006 121.544 84.7142C119.207 88.0368 116.447 91.0298 113.583 93.8956C116.291 98.4591 118.119 103.573 118.677 108.868C119.628 117.346 117.191 126.079 112.234 132.978C106.521 141.077 97.4544 146.617 87.7153 148.195H79.5555C73.3265 147.52 67.0199 145.999 61.7782 142.409C56.035 144.369 49.6276 144.047 43.9879 141.874C38.9038 139.919 34.4065 136.638 30.5941 132.771C27.1384 129.331 24.2177 125.388 21.6227 121.263C16.2828 119.153 11.4934 115.638 7.91623 111.127C2.60473 104.497 -0.0833262 95.9229 0.00196795 87.4502C0.0510767 79.6991 2.48325 72.1271 6.15865 65.3676C10.6198 57.1777 16.7687 50.0133 23.6284 43.7574C28.7357 39.1576 34.223 34.9394 40.2194 31.5726C47.4333 27.7749 55.102 24.7638 63.0964 23.1232C64.7557 16.5843 69.1548 11.0682 74.3991 7.00057C77.0251 5.00179 79.8114 3.15616 82.9104 1.98285ZM85.3788 10.4452C82.316 11.8444 79.5917 13.9029 77.1363 16.1924C75.2521 18.0639 73.6341 20.2159 72.4942 22.6222C76.0275 23.1232 79.5271 24.1693 82.5848 26.0513C84.4121 27.3077 84.9963 30.067 83.7556 31.9334C82.6546 33.8647 79.9458 34.6019 78.0254 33.4961C75.9473 32.3539 73.6599 31.5752 71.2975 31.3623C69.8501 31.191 68.3923 31.2767 66.9424 31.2793C64.0372 31.8711 61.1346 32.5253 58.3044 33.4208C54.1999 34.6824 50.2454 36.3878 46.3813 38.2542C42.4965 40.144 38.9271 42.6204 35.4947 45.237C31.2196 48.5181 27.247 52.186 23.5793 56.1394C18.9269 61.2558 14.7966 66.9406 11.9974 73.303C9.58334 78.7853 8.26516 84.8648 8.89065 90.8689C9.54199 97.483 12.4161 103.996 17.3994 108.461C16.0011 100.538 16.898 92.3433 19.2319 84.6908C19.997 82.6531 22.4447 81.4642 24.5124 82.1288C26.7223 82.6998 28.1542 85.2308 27.5106 87.432C26.7094 90.2537 26.0658 93.1272 25.7324 96.0449C24.9156 102.755 25.9882 109.66 28.6117 115.872C31.9769 121.489 36.1434 126.764 41.4833 130.608C45.0915 133.227 49.4364 134.987 53.9363 134.941C50.1989 130.307 47.5056 124.75 46.6268 118.823C45.7532 113.255 46.464 107.573 47.7202 102.124C48.0639 100.769 49.0874 99.6168 50.4005 99.1444C52.5923 98.2488 55.2958 99.5155 56.0505 101.758C56.6941 103.389 55.9084 105.065 55.6913 106.696C54.7453 111.661 54.554 116.939 56.3426 121.744C58.0769 126.52 61.3052 130.603 64.9728 134.04C66.2471 134.723 67.3637 135.662 68.6534 136.316C72.4038 138.323 76.6659 139.021 80.8427 139.489C82.3108 139.598 83.7867 139.94 85.2599 139.675C92.7503 138.775 99.8891 134.858 104.474 128.807C107.915 124.358 109.941 118.8 110.047 113.157C110.171 108.611 109.034 104.074 106.976 100.035C101.916 104.056 96.038 107.03 89.7753 108.609C88.2969 112.601 88.6355 117.045 89.858 121.061C90.5714 123.348 88.9999 125.967 86.6866 126.481C84.5853 127.034 82.2229 125.764 81.5406 123.693C80.1681 119.272 79.6305 114.53 80.4343 109.946C78.0978 109.878 76.0636 107.716 76.2187 105.356C76.2523 103.046 78.3485 101.086 80.6359 101.138C89.1653 100.673 97.6095 97.226 103.699 91.1544C108.209 87.0323 112.673 82.705 115.847 77.4225C116.94 75.4809 117.94 73.3834 118.046 71.1173C118.018 67.7064 117.199 64.1735 115.033 61.4686C113.919 59.8073 111.957 58.5042 111.892 56.3211C111.649 53.6656 114.229 51.2645 116.85 51.7265C118.76 51.9004 119.9 53.5825 121.027 54.9324C123.448 57.7956 125.278 61.1909 126.077 64.8795C128.897 63.3065 131.089 60.843 133.009 58.2862C135.113 55.3191 135.894 51.5993 135.847 48.0041C135.757 42.732 134.139 37.5897 131.781 32.9146C129.073 27.6944 125.421 22.9493 120.965 19.1153C115.252 14.3909 108.385 11.0838 101.153 9.51592C95.9501 8.44125 90.3491 8.3478 85.3788 10.4452Z" fill="black"/>
<path d="M85.3788 10.4452C90.3491 8.3478 95.9501 8.44125 101.153 9.51592C108.385 11.0838 115.252 14.3909 120.965 19.1153C125.421 22.9493 129.073 27.6944 131.781 32.9146C134.139 37.5897 135.757 42.732 135.847 48.0041C135.894 51.5993 135.113 55.3191 133.009 58.2862C131.089 60.843 128.897 63.3065 126.077 64.8795C125.278 61.1909 123.448 57.7956 121.027 54.9324C119.9 53.5825 118.76 51.9004 116.85 51.7265C114.229 51.2645 111.649 53.6656 111.892 56.3211C111.957 58.5042 113.919 59.8073 115.033 61.4686C117.199 64.1735 118.018 67.7064 118.046 71.1173C117.94 73.3834 116.94 75.4809 115.847 77.4225C112.673 82.705 108.209 87.0323 103.699 91.1544C97.6095 97.226 89.1653 100.673 80.6359 101.138C78.3485 101.086 76.2523 103.046 76.2187 105.356C76.0636 107.716 78.0978 109.878 80.4343 109.946C79.6305 114.53 80.1681 119.272 81.5406 123.693C82.2229 125.764 84.5853 127.034 86.6866 126.481C88.9999 125.967 90.5714 123.348 89.858 121.061C88.6355 117.045 88.2969 112.601 89.7753 108.609C96.038 107.03 101.916 104.056 106.976 100.035C109.034 104.074 110.171 108.611 110.047 113.157C109.941 118.8 107.915 124.358 104.474 128.807C99.8891 134.858 92.7503 138.775 85.2599 139.675C83.7867 139.94 82.3108 139.598 80.8427 139.489C76.6659 139.021 72.4038 138.323 68.6534 136.316C67.3637 135.662 66.2471 134.723 64.9728 134.04C61.3052 130.603 58.0769 126.52 56.3426 121.744C54.554 116.939 54.7453 111.661 55.6913 106.696C55.9084 105.065 56.6941 103.389 56.0505 101.758C55.2958 99.5155 52.5923 98.2488 50.4005 99.1444C49.0874 99.6168 48.0639 100.769 47.7202 102.124C46.464 107.573 45.7532 113.255 46.6268 118.823C47.5056 124.75 50.1989 130.307 53.9363 134.941C49.4364 134.987 45.0915 133.227 41.4833 130.608C36.1434 126.764 31.9769 121.489 28.6117 115.872C25.9882 109.66 24.9156 102.755 25.7324 96.0449C26.0658 93.1272 26.7094 90.2537 27.5106 87.432C28.1542 85.2308 26.7223 82.6998 24.5124 82.1288C22.4447 81.4642 19.997 82.6531 19.2319 84.6908C16.898 92.3433 16.0011 100.538 17.3994 108.461C12.4161 103.996 9.54199 97.483 8.89065 90.8689C8.26516 84.8648 9.58334 78.7853 11.9974 73.303C14.7966 66.9406 18.9269 61.2558 23.5793 56.1394C27.247 52.186 31.2196 48.5181 35.4947 45.237C38.9271 42.6204 42.4965 40.144 46.3813 38.2542C50.2454 36.3878 54.1999 34.6824 58.3044 33.4208C61.1346 32.5253 64.0372 31.8711 66.9424 31.2793C68.3923 31.2767 69.8501 31.191 71.2975 31.3623C73.6599 31.5752 75.9473 32.3539 78.0254 33.4961C79.9458 34.6019 82.6546 33.8647 83.7556 31.9334C84.9963 30.067 84.4121 27.3077 82.5848 26.0513C79.5271 24.1693 76.0275 23.1232 72.4942 22.6222C73.6341 20.2159 75.2521 18.0639 77.1363 16.1924C79.5917 13.9029 82.316 11.8444 85.3788 10.4452Z" fill="white"/>
</svg>
