<svg width="140" height="86" viewBox="0 0 140 86" fill="none" xmlns="http://www.w3.org/2000/svg">
<path d="M95.426 0H97.3013C106.114 0.156364 115.14 1.92588 122.706 6.65327C128.984 10.5259 134.096 16.3426 136.932 23.1861C139.514 29.3312 140.309 36.1356 139.73 42.7498C138.919 51.9961 135.473 60.8854 130.452 68.6384C127.792 72.7195 124.657 76.4853 121.109 79.821C119.535 81.2987 117.914 82.7815 115.995 83.8005C112.735 85.583 108.87 86.1981 105.218 85.5439C101.496 84.8872 98 82.9301 95.5403 80.0399C92.8571 76.9726 91.3792 72.8733 91.4909 68.7948C91.5377 64.1612 93.6597 59.6006 97.1558 56.575C101.945 52.4887 105.527 46.7944 106.553 40.5242C106.727 38.8772 106.93 36.9592 105.881 35.5519C104.706 34.5199 103.119 34.142 101.631 33.8084C97.6727 33.0631 93.6078 33.3263 89.6364 33.8241C79.8779 35.1453 70.4571 38.2309 61.2961 41.7569C48.5948 46.7319 36.3532 52.8092 24.3974 59.3635C21.3922 60.9662 17.8883 61.6255 14.5117 61.1616C10.6935 60.6795 7.05714 58.8318 4.45714 55.9834C1.87532 53.2627 0.371429 49.6246 0 45.9058V43.8782C0.249351 38.111 3.65714 32.5836 8.77922 29.915C25.6571 20.7234 43.0468 12.2902 61.3532 6.34836C72.3792 2.82758 83.8078 0.192849 95.426 0ZM91.0364 8.01885C80.2364 8.84758 69.7013 11.6934 59.4935 15.2168C44.0519 20.6165 29.2701 27.7415 14.8779 35.4893C13.6623 36.1799 12.3792 36.7637 11.2494 37.595C8.81299 39.4271 7.47532 42.6013 7.84675 45.6321C8.16623 48.6578 10.174 51.4306 12.9403 52.6737C15.3013 53.7865 18.1584 53.75 20.4935 52.5877C34.7013 44.8269 49.2805 37.6445 64.5455 32.2109C73.7481 29.0185 83.2286 26.3186 92.9818 25.6436C97.4701 25.3778 102.088 25.5264 106.379 27.0092C109.091 27.9682 111.73 29.6518 113.052 32.3021C114.842 35.69 114.712 39.7242 113.951 43.3805C112.294 50.8729 107.953 57.6643 102.132 62.6002C99.361 65.0577 98.5013 69.3264 100.013 72.6987C101.639 76.5296 106.153 78.7995 110.182 77.7336C112.857 77.1498 114.751 75.0624 116.675 73.2772C123.836 66.1236 129.101 56.9659 131.236 47.0264C132.691 40.076 132.478 32.6096 129.662 26.0215C127.01 19.7565 121.904 14.6799 115.808 11.7612C108.14 8.08661 99.4078 7.41424 91.0364 8.01885Z" fill="black"/>
<path d="M91.0364 8.01885C99.4078 7.41424 108.14 8.08661 115.808 11.7612C121.904 14.6799 127.01 19.7565 129.662 26.0215C132.478 32.6096 132.691 40.076 131.236 47.0264C129.101 56.9659 123.836 66.1236 116.675 73.2772C114.751 75.0624 112.857 77.1498 110.182 77.7336C106.153 78.7995 101.639 76.5296 100.013 72.6987C98.5013 69.3264 99.361 65.0577 102.132 62.6002C107.953 57.6643 112.294 50.8729 113.951 43.3805C114.712 39.7242 114.842 35.69 113.052 32.3021C111.73 29.6518 109.091 27.9682 106.379 27.0092C102.088 25.5264 97.4701 25.3778 92.9818 25.6436C83.2286 26.3186 73.7481 29.0185 64.5455 32.2109C49.2805 37.6445 34.7013 44.8269 20.4935 52.5877C18.1584 53.75 15.3013 53.7865 12.9403 52.6737C10.174 51.4306 8.16623 48.6578 7.84675 45.6321C7.47532 42.6013 8.81299 39.4271 11.2494 37.595C12.3792 36.7637 13.6623 36.1799 14.8779 35.4893C29.2701 27.7415 44.0519 20.6165 59.4935 15.2168C69.7013 11.6934 80.2364 8.84758 91.0364 8.01885Z" fill="#FFCA05"/>
</svg>
