<svg width="152" height="114" viewBox="0 0 152 114" fill="none" xmlns="http://www.w3.org/2000/svg">
<path d="M106.212 1.23353C113.087 -0.532078 120.401 -0.349029 127.252 1.44207C134.063 3.2378 140.567 6.70414 145.337 11.9755C148.296 15.2356 150.441 19.2673 151.286 23.6095V33.471C150.566 38.4897 148.183 43.439 143.992 46.4257C145.582 51.3866 146.959 56.4239 147.888 61.5539C148.548 65.1662 148.984 68.8318 148.947 72.509C148.894 75.7321 148.442 79.0154 147.035 81.9465C147.784 86.5528 148.419 91.2101 148.333 95.8883C148.236 98.3768 147.98 101.044 146.483 103.122C145.231 104.855 143.121 105.555 141.176 106.185C137.373 107.33 133.475 108.132 129.584 108.91C124.468 109.916 119.329 110.796 114.183 111.614C112.423 111.957 110.513 110.945 109.867 109.255C109.438 107.974 109.395 106.602 109.136 105.284C96.4019 109.969 82.9179 112.258 69.4317 113.287H44.8303C37.108 112.68 29.4088 111.487 21.968 109.297C16.6722 107.719 11.4779 105.662 6.77261 102.733C5.46943 101.852 4.0094 101.035 3.22287 99.6072C1.09164 96.0041 -0.389147 91.794 0.0906097 87.5515C0.452734 84.15 2.42481 81.0266 5.21801 79.1011C4.00248 68.0023 4.2216 56.5699 7.33541 45.7862C9.62809 37.8734 13.8744 30.2896 20.4388 25.1851C26.7056 20.1941 34.7139 17.8539 42.6229 17.5063C51.9713 17.0198 61.202 19.0565 70.1674 21.4963C75.2925 22.8982 80.3807 24.4715 85.2913 26.5174C84.8554 23.4288 85.1322 20.2312 86.2163 17.3001C87.6417 13.3565 90.4049 10.0222 93.6594 7.44792C97.3383 4.50524 101.663 2.4106 106.212 1.23353ZM99.5249 12.8328C96.7271 14.8023 94.213 17.4808 93.2788 20.8591C92.3608 24.1262 93.2166 27.6366 94.8357 30.5329C96.8862 34.1337 99.9977 37.1945 103.79 38.8976C105.418 39.7317 106.29 41.7869 105.699 43.5363C105.125 45.6263 102.623 46.8706 100.62 46.0434C97.0708 44.5489 94.0031 42.0627 91.4382 39.2104C90.9838 38.8976 90.4164 38.7632 90.0036 38.3808C88.0615 36.3766 85.4782 35.2041 82.9848 34.0572C77.9589 31.8977 72.7092 30.3105 67.4365 28.8855C62.0969 27.4883 56.7158 26.1351 51.2101 25.5952C44.2583 24.8955 36.9696 25.2384 30.516 28.1626C25.1902 30.5306 20.8632 34.8496 18.1069 39.968C14.368 46.859 12.9195 54.7556 12.4743 62.5201C12.1607 68.4124 12.419 74.3372 13.2424 80.1809C16.5707 82.1573 20.1505 83.6773 23.8363 84.8382C31.5078 87.2456 39.5068 88.3972 47.4966 89.0529C60.6346 90.0585 73.8394 89.6554 86.9589 88.5941C98.7084 87.6163 110.409 86.0801 122.011 83.9785C126.806 83.0726 131.604 82.1365 136.314 80.8412C137.354 80.4937 138.554 80.3361 139.338 79.4927C140.36 78.3411 140.687 76.7701 140.925 75.2941C141.398 71.7838 141.017 68.2271 140.51 64.7422C139.677 59.5427 138.348 54.4335 136.738 49.4263C134.681 49.7994 132.577 49.8596 130.495 49.7716C128.16 49.5468 126.514 46.9193 127.291 44.7018C127.734 43.2907 129.023 42.1855 130.488 42.0001C132.275 41.8356 134.072 41.7615 135.857 41.5784C137.905 41.1938 139.811 40.07 141.121 38.4388C142.627 36.5272 143.326 34.1151 143.651 31.7332C144.002 28.9434 144.05 26.0378 143.137 23.3454C141.55 18.5374 137.726 14.8 133.422 12.3439C128.08 9.29231 121.903 7.78853 115.77 7.84414C110.043 7.91365 104.207 9.4267 99.5249 12.8328ZM8.63167 86.4972C8.15883 87.146 7.85668 87.9152 7.82439 88.7239C7.71137 90.5544 8.32029 92.3339 9.05838 93.979C9.36515 94.6255 9.65808 95.353 10.327 95.7029C14.8431 98.6502 19.9452 100.553 25.1003 102.035C36.9397 105.337 49.3257 106.109 61.5618 105.785C73.2582 105.449 84.9592 104.037 96.2981 101.092C100.92 99.8621 105.513 98.444 109.883 96.4791C110.82 95.9578 111.916 95.6172 112.986 95.8674C114.536 96.1478 115.816 97.4778 116.067 99.0372C116.305 100.439 116.499 101.85 116.725 103.254C120.263 102.67 123.794 102.042 127.314 101.361C131.662 100.465 136.058 99.686 140.258 98.2146C140.844 94.8085 140.387 91.3329 140.023 87.9291C134.485 89.5696 128.809 90.6818 123.139 91.7454C106.763 94.688 90.195 96.5927 73.5719 97.2739C60.081 97.7535 46.4864 97.494 33.1593 95.1445C24.6182 93.5851 16.0402 91.1777 8.63167 86.4972Z" fill="black"/>
<path d="M99.5249 12.8328C104.207 9.4267 110.043 7.91365 115.77 7.84414C121.903 7.78853 128.08 9.29231 133.422 12.3439C137.726 14.8 141.55 18.5374 143.137 23.3454C144.05 26.0378 144.002 28.9434 143.651 31.7332C143.326 34.1151 142.627 36.5272 141.121 38.4388C139.811 40.07 137.905 41.1938 135.857 41.5784C134.072 41.7615 132.275 41.8356 130.488 42.0001C129.023 42.1855 127.734 43.2907 127.291 44.7018C126.514 46.9193 128.16 49.5468 130.495 49.7716C132.577 49.8596 134.681 49.7994 136.738 49.4263C138.348 54.4335 139.677 59.5427 140.51 64.7422C141.017 68.2271 141.398 71.7838 140.925 75.2941C140.687 76.7701 140.36 78.3411 139.338 79.4927C138.554 80.3361 137.354 80.4937 136.314 80.8412C131.604 82.1365 126.806 83.0726 122.011 83.9785C110.409 86.0801 98.7084 87.6163 86.9589 88.5941C73.8394 89.6554 60.6346 90.0585 47.4966 89.0529C39.5068 88.3972 31.5078 87.2456 23.8363 84.8382C20.1505 83.6773 16.5707 82.1573 13.2424 80.1809C12.419 74.3372 12.1607 68.4124 12.4743 62.5201C12.9195 54.7556 14.368 46.859 18.1069 39.968C20.8632 34.8496 25.1902 30.5306 30.516 28.1626C36.9696 25.2384 44.2583 24.8955 51.2101 25.5952C56.7158 26.1351 62.0969 27.4883 67.4365 28.8855C72.7092 30.3105 77.9589 31.8977 82.9848 34.0572C85.4782 35.2041 88.0615 36.3766 90.0036 38.3808C90.4164 38.7632 90.9838 38.8976 91.4382 39.2104C94.0031 42.0627 97.0708 44.5489 100.62 46.0434C102.623 46.8706 105.125 45.6263 105.699 43.5363C106.29 41.7869 105.418 39.7317 103.79 38.8976C99.9977 37.1945 96.8862 34.1337 94.8357 30.5329C93.2166 27.6366 92.3608 24.1262 93.2788 20.8591C94.213 17.4808 96.7271 14.8023 99.5249 12.8328Z" fill="white"/>
<path d="M8.63167 86.4972C16.0402 91.1777 24.6182 93.5851 33.1593 95.1445C46.4864 97.494 60.081 97.7535 73.5719 97.2739C90.195 96.5927 106.763 94.688 123.139 91.7454C128.809 90.6818 134.485 89.5696 140.023 87.9291C140.387 91.3329 140.844 94.8085 140.258 98.2146C136.058 99.686 131.662 100.465 127.314 101.361C123.794 102.042 120.263 102.67 116.725 103.254C116.499 101.85 116.305 100.439 116.067 99.0372C115.816 97.4778 114.536 96.1478 112.986 95.8674C111.916 95.6172 110.82 95.9578 109.883 96.4791C105.513 98.444 100.92 99.8621 96.2981 101.092C84.9592 104.037 73.2582 105.449 61.5618 105.785C49.3257 106.109 36.9397 105.337 25.1003 102.035C19.9452 100.553 14.8431 98.6502 10.327 95.7029C9.65808 95.353 9.36515 94.6255 9.05838 93.979C8.32029 92.3339 7.71137 90.5544 7.82439 88.7239C7.85668 87.9152 8.15883 87.146 8.63167 86.4972Z" fill="#D684B7"/>
</svg>
