<svg width="67" height="143" viewBox="0 0 67 143" fill="none" xmlns="http://www.w3.org/2000/svg">
<path d="M13.497 0.859546C17.8998 -0.52712 22.798 -0.22138 27.0095 1.67084C29.845 2.93714 32.3431 4.92806 34.2813 7.35955C39.4691 13.6886 43.7786 20.699 47.588 27.9381C59.2173 50.2571 65.3191 75.2653 66.628 100.37V121.574C66.4772 124.492 66.3744 127.472 65.3119 130.231C63.0602 136.611 57.2241 141.498 50.5982 142.632H43.9987C36.6335 141.438 30.326 135.496 28.6438 128.187C27.6603 124.562 28.3375 120.804 28.4021 117.118C29.1343 97.1366 26.4112 76.8807 19.2207 58.1799C16.0238 49.9225 12.0278 41.9299 6.86399 34.7318C5.45939 32.7071 3.64321 30.9834 2.4731 28.7951C-0.905613 22.9186 -0.809899 15.239 2.68367 9.43714C5.07174 5.36621 9.00321 2.24621 13.497 0.859546ZM17.2107 7.49677C14.9542 7.87473 12.815 8.92918 11.1305 10.4868C8.32364 13.0675 6.84964 17.0494 7.38803 20.8482C7.68714 23.4386 8.92903 25.846 10.695 27.7358C15.5644 33.8049 19.4026 40.642 22.7071 47.6788C26.9783 56.9353 30.1441 66.6925 32.2833 76.6664C35.5448 91.821 36.423 107.448 35.4132 122.905C35.0351 127.802 38.0621 132.687 42.5463 134.586C46.0949 136.168 50.4164 135.826 53.6707 133.693C56.6306 131.83 58.6741 128.58 59.0857 125.091C60.2582 108.776 59.4446 92.2905 56.4248 76.2066C53.0437 58.3123 46.9204 40.8634 37.7007 25.1551C34.8628 20.4053 31.8119 15.7566 28.2346 11.534C25.5929 8.37066 21.2546 6.78177 17.2107 7.49677Z" fill="black"/>
<path d="M17.2107 7.49677C21.2546 6.78177 25.5929 8.37066 28.2346 11.534C31.8119 15.7566 34.8628 20.4053 37.7007 25.1551C46.9204 40.8634 53.0437 58.3123 56.4248 76.2066C59.4446 92.2905 60.2582 108.776 59.0857 125.091C58.6741 128.58 56.6306 131.83 53.6707 133.693C50.4164 135.826 46.0949 136.168 42.5463 134.586C38.0621 132.687 35.0351 127.802 35.4132 122.905C36.423 107.448 35.5448 91.821 32.2833 76.6664C30.1441 66.6925 26.9783 56.9353 22.7071 47.6788C19.4026 40.642 15.5644 33.8049 10.695 27.7358C8.92903 25.846 7.68714 23.4386 7.38803 20.8482C6.84964 17.0494 8.32364 13.0675 11.1305 10.4868C12.815 8.92918 14.9542 7.87473 17.2107 7.49677Z" fill="#FFCA05"/>
</svg>
