<svg width="150" height="102" viewBox="0 0 150 102" fill="none" xmlns="http://www.w3.org/2000/svg">
<path d="M106.54 3.86186C111.084 0.58224 116.945 -0.584172 122.443 0.269895C126.662 0.872622 130.64 2.8321 133.789 5.692C137.314 8.84717 139.833 12.9638 141.738 17.2561C143.487 21.2751 144.687 25.5186 145.54 29.8133C147.648 40.8332 147.657 52.1777 146.367 63.2976C145.723 69.0784 144.382 74.747 143.162 80.4229C144.833 81.9456 146.494 83.4804 148.079 85.091C148.533 85.54 148.916 86.0524 149.25 86.5966V90.0031C148.76 91.106 147.794 91.9845 146.631 92.3139C145.233 92.7288 143.626 92.3432 142.596 91.3061C140.831 89.5663 139.143 87.7117 137.07 86.3233C130.416 81.499 123.179 77.0139 114.994 75.4498C108.931 74.2516 102.584 75.2448 96.9599 77.7094C94.438 78.6855 92.194 80.2155 89.9428 81.6869C87.7014 83.1461 84.3526 81.7162 83.8355 79.0978C83.4404 77.5044 84.094 75.6913 85.4599 74.769C87.1648 73.6025 88.9136 72.4996 90.7233 71.4991C89.8087 62.4923 89.4672 53.4075 90.1843 44.3739C90.8697 35.8601 92.2819 27.317 95.416 19.3351C97.7867 13.3957 101.253 7.63195 106.54 3.86186ZM111.336 10.6334C107.638 13.2176 105.265 17.2365 103.521 21.3092C100.426 28.7762 99.0867 36.8435 98.4306 44.8595C97.8184 52.6608 97.9965 60.5085 98.7233 68.2976C101.879 67.3459 105.157 66.8164 108.448 66.687C107.726 62.7998 107.34 58.854 107.231 54.9033C107.255 54.1371 108.118 53.8736 108.738 53.7247C112.621 53.0122 116.679 53.4148 120.482 52.1947C122.333 51.6213 124.218 50.489 124.875 48.5564C125.672 46.4554 124.631 44.2129 123.192 42.6731C119.65 38.8127 114.706 36.7239 110.677 33.4663C109.845 32.7415 108.814 31.7386 109.172 30.5234C110.801 22.7538 113.323 15.0575 117.56 8.29813C115.34 8.58363 113.16 9.31569 111.336 10.6334Z" fill="black"/>
<path d="M35.3014 0.818938C41.2477 -0.223024 47.6648 1.12152 52.5038 4.79157C57.1355 8.24688 60.1843 13.4103 62.1648 18.7568C64.1599 24.1691 65.1379 29.906 65.5965 35.6405C66.0428 41.5165 65.9184 47.4266 65.3794 53.2928C72.394 55.511 78.3819 61.16 80.4282 68.3C80.694 69.4103 80.194 70.4986 79.5526 71.3746C79.3916 71.4649 79.2355 71.5601 79.0818 71.6601C77.8843 72.6313 75.9794 72.5581 74.8526 71.5113C74.1648 70.9696 73.8672 70.1228 73.5794 69.3298C72.0819 65.3108 68.7867 62.097 64.8843 60.3938C60.4623 58.4587 55.3111 58.2196 50.7453 59.8008C47.3453 60.977 44.3184 63.344 42.577 66.5211C40.5916 70.0813 40.2062 74.3175 40.6599 78.3097C41.1477 82.6483 42.9892 86.9016 46.1209 89.986C48.8136 92.741 52.4672 94.6419 56.3331 94.9371C59.8257 95.0957 63.4697 94.3442 66.3428 92.2749C68.7843 90.6009 70.5014 88.09 71.7575 85.4497C72.7697 83.3413 76.0038 83.0924 77.3794 84.9616C78.1599 85.9304 78.3721 87.314 77.8599 88.4584C76.8111 90.7595 75.4306 92.9167 73.7355 94.7956C70.8038 98.0825 66.794 100.318 62.5038 101.257H52.5501C47.055 99.9127 42.1355 96.5086 38.8111 91.9455C35.4477 87.4091 33.8111 81.7796 33.6404 76.1745C31.6697 75.4986 29.6355 75.013 27.5721 74.7348C21.9014 73.9612 16.1282 75.1252 10.8745 77.2677C9.25014 78.0632 7.62575 78.8587 6.06966 79.7835C4.19892 80.845 1.59649 80.0935 0.555022 78.2194C-0.552295 76.4039 0.0501438 73.7587 1.89161 72.6679C3.7038 71.5918 5.56234 70.5889 7.49161 69.7397C7.27453 61.5968 7.52088 53.427 8.59892 45.3451C9.59649 37.8025 11.1989 30.3038 13.877 23.1687C16.1697 17.1829 19.2672 11.3459 23.9184 6.85597C27.0453 3.83013 30.9892 1.5754 35.3014 0.818938ZM30.6843 11.9047C27.3672 14.5767 25.1111 18.3078 23.2892 22.0998C20.8038 27.3999 19.216 33.0709 18.0404 38.7908C16.1965 48.1099 15.5062 57.6388 15.7184 67.1311C18.9355 66.4381 22.2428 66.116 25.5355 66.2795C25.1014 62.3411 25.0062 58.366 25.1989 54.4104C25.2111 53.998 25.555 53.6955 25.9209 53.571C26.9038 53.2074 27.9697 53.2391 29.0014 53.1977C32.0892 53.183 35.216 53.3978 38.2648 52.7828C39.5014 52.512 40.7453 52.1044 41.7575 51.3187C43.2453 50.1987 44.0184 48.166 43.5306 46.3505C42.9989 44.2812 41.5136 42.6341 40.0062 41.1943C36.9867 38.3149 33.3599 36.1724 30.2989 33.3443C29.6209 32.6317 28.7916 31.7947 28.8453 30.7381C29.3184 28.8397 29.9428 26.9778 30.5819 25.1281C32.6672 19.3473 35.2672 13.6763 38.9697 8.7398C35.9477 8.8008 33.0087 9.9965 30.6843 11.9047Z" fill="black"/>
<path d="M111.336 10.6334C113.16 9.31569 115.34 8.58363 117.56 8.29813C113.323 15.0575 110.801 22.7538 109.172 30.5234C108.814 31.7386 109.845 32.7415 110.677 33.4663C114.706 36.7239 119.65 38.8127 123.192 42.6731C124.631 44.2129 125.672 46.4554 124.875 48.5564C124.218 50.489 122.333 51.6213 120.482 52.1947C116.679 53.4148 112.621 53.0122 108.738 53.7247C108.118 53.8736 107.255 54.1371 107.231 54.9033C107.34 58.854 107.726 62.7998 108.448 66.687C105.157 66.8164 101.879 67.3459 98.7233 68.2976C97.9965 60.5085 97.8184 52.6608 98.4306 44.8595C99.0867 36.8435 100.426 28.7762 103.521 21.3092C105.265 17.2365 107.638 13.2176 111.336 10.6334Z" fill="white"/>
<path d="M30.6843 11.9047C33.0087 9.9965 35.9477 8.8008 38.9697 8.7398C35.2672 13.6763 32.6672 19.3473 30.5819 25.1281C29.9428 26.9778 29.3184 28.8397 28.8453 30.7381C28.7916 31.7947 29.6209 32.6317 30.2989 33.3443C33.3599 36.1724 36.9867 38.3149 40.0062 41.1943C41.5136 42.6341 42.9989 44.2812 43.5306 46.3505C44.0184 48.166 43.2453 50.1987 41.7575 51.3187C40.7453 52.1044 39.5014 52.512 38.2648 52.7828C35.216 53.3978 32.0892 53.183 29.0014 53.1977C27.9697 53.2391 26.9038 53.2074 25.9209 53.571C25.555 53.6955 25.2111 53.998 25.1989 54.4104C25.0062 58.366 25.1014 62.3411 25.5355 66.2795C22.2428 66.116 18.9355 66.4381 15.7184 67.1311C15.5062 57.6388 16.1965 48.1099 18.0404 38.7908C19.216 33.0709 20.8038 27.3999 23.2892 22.0998C25.1111 18.3078 27.3672 14.5767 30.6843 11.9047Z" fill="white"/>
<path d="M50.7453 59.8008C55.3111 58.2196 60.4623 58.4587 64.8843 60.3938C68.7867 62.097 72.0819 65.3108 73.5794 69.3298C73.8672 70.1228 74.1648 70.9696 74.8526 71.5113C75.9794 72.5581 77.8843 72.6313 79.0818 71.6601C79.1672 71.687 79.338 71.7431 79.4233 71.7699C80.2209 76.2989 79.6355 81.0768 77.6258 85.2227L77.3794 84.9616C76.0038 83.0924 72.7697 83.3413 71.7575 85.4497C70.5014 88.09 68.7843 90.6009 66.3428 92.2749C63.4697 94.3442 59.8257 95.0957 56.3331 94.9371C52.4672 94.6419 48.8136 92.741 46.1209 89.986C42.9892 86.9016 41.1477 82.6483 40.6599 78.3097C40.2062 74.3175 40.5916 70.0813 42.577 66.5211C44.3184 63.344 47.3453 60.977 50.7453 59.8008Z" fill="#FFCA05"/>
</svg>
