<svg width="104" height="82" viewBox="0 0 104 82" fill="none" xmlns="http://www.w3.org/2000/svg">
<path d="M20.006 1.32499C21.0628 0.0260518 23.0278 -0.389996 24.5039 0.400978C25.9585 1.11455 26.8139 2.87065 26.4569 4.46953C25.7452 7.81242 23.785 10.7731 21.2497 13.0033C24.8945 16.0947 28.8244 18.8764 33.1067 20.9953C40.056 24.5027 47.9518 26.0991 55.7015 25.3928C64.472 24.7373 72.8351 21.3291 80.1942 16.576C76.8394 13.5452 74.5797 9.04847 74.9271 4.43325C75.0373 2.5175 76.8298 0.930713 78.7229 1.03956C80.719 1.0444 82.4611 2.92871 82.3054 4.94605C82.1975 7.53183 83.6952 9.96039 85.7249 11.4383C88.658 13.6322 92.9306 13.504 95.8805 11.4069C97.0906 10.628 97.8359 9.15732 99.324 8.83319C101.275 8.24298 103.434 9.6411 103.877 11.6101V13.3178C103.707 13.8572 103.477 14.3869 103.11 14.8199C99.7889 18.7458 94.5649 20.8478 89.4775 20.4922C89.3625 25.0832 88.7898 29.6501 88.0254 34.1758C86.4702 43.0603 83.9996 51.853 79.9594 59.9296C76.6021 66.5307 72.0611 72.7376 65.8643 76.8738C61.5916 79.7668 56.5738 81.4286 51.4576 81.8688H46.6962C40.7821 81.5157 35.0045 79.2782 30.4228 75.4781C24.1253 70.3356 20.0372 62.9774 17.2622 55.4063C14.4226 47.5885 12.8267 39.3594 11.9448 31.0966C11.4584 26.4354 11.1924 21.7452 11.2643 17.0574C8.58998 17.3235 5.89173 17.1783 3.23422 16.8227C1.28841 16.6341 -0.254815 14.6458 0.035139 12.6913C0.205277 10.7804 2.03127 9.21537 3.93394 9.40647C6.95569 9.72334 10.0949 10.0378 13.0447 9.09201C15.4554 8.36635 17.6456 6.6949 18.7144 4.35826C19.1985 3.36894 19.2608 2.17885 20.006 1.32499ZM18.5802 20.6059C18.5299 21.2662 18.5562 21.9314 18.6114 22.5918C18.8055 22.2265 18.9085 21.825 18.9468 21.4162C19.0044 21.1187 19.1266 20.3301 18.5802 20.6059ZM70.0698 29.892C61.757 32.8261 52.7205 33.7984 44.0099 32.3713C37.6525 31.3288 31.5754 28.9147 26.0136 25.6758C25.9249 27.2481 25.841 28.8204 25.7452 30.3927C32.3231 32.6591 39.1406 34.1734 46.006 35.2401C57.2926 36.9696 68.7973 37.1196 80.1367 35.8279C80.9203 32.0327 81.4906 28.1915 81.8333 24.3285C78.095 26.5466 74.1723 28.4648 70.0698 29.892ZM19.8694 34.9256C20.8112 41.2171 22.1962 47.4651 24.4272 53.4252C28.1822 50.8153 32.6921 49.2841 37.2667 49.2986C42.227 49.2285 47.0796 50.7887 51.4217 53.1253C55.0473 49.9203 59.3415 47.4216 64.0191 46.1807C68.4187 45.0341 73.0987 45.2446 77.46 46.4685C77.7308 45.484 78.0375 44.5117 78.3227 43.532C60.1059 45.2784 41.5105 43.3917 24.0797 37.7267C22.4239 37.2599 20.9981 36.2149 19.8694 34.9256ZM57.2016 57.9824C56.1712 58.8677 55.0904 59.7409 54.3428 60.8996C52.1262 64.3295 50.2667 67.9772 48.4095 71.6128C47.5349 73.1899 45.4285 73.8551 43.8038 73.1125C41.9419 72.3723 41.0049 69.9825 41.87 68.1586C43.3677 65.0721 45.0067 62.0558 46.7201 59.0878C43.8421 57.7163 40.7102 56.7609 37.5039 56.7681C33.931 56.7463 30.3437 58.0404 27.6407 60.4109C29.4691 63.6595 31.6737 66.7533 34.5085 69.1818C37.7771 72.0482 41.9203 73.8914 46.2337 74.3171C52.0375 74.975 58.0738 73.4197 62.7706 69.893C68.2941 65.8002 72.0156 59.7409 74.7474 53.5002C72.9933 53.0358 71.1673 52.8399 69.3557 52.9173C64.8626 53.0697 60.6667 55.2055 57.2016 57.9824Z" fill="black"/>
<path d="M18.5802 20.6059C19.1266 20.3301 19.0044 21.1187 18.9468 21.4162C18.9085 21.825 18.8055 22.2265 18.6114 22.5918C18.5562 21.9314 18.5299 21.2662 18.5802 20.6059Z" fill="#43161D"/>
<path d="M70.0698 29.892C74.1723 28.4648 78.095 26.5466 81.8333 24.3285C81.4906 28.1915 80.9203 32.0327 80.1367 35.8279C68.7973 37.1196 57.2926 36.9696 46.006 35.2401C39.1406 34.1734 32.3231 32.6591 25.7452 30.3927C25.841 28.8204 25.9249 27.2481 26.0136 25.6758C31.5754 28.9147 37.6525 31.3288 44.0099 32.3713C52.7205 33.7984 61.757 32.8261 70.0698 29.892Z" fill="#FFF8F5"/>
<path d="M19.8694 34.9256C20.9981 36.2149 22.4239 37.2599 24.0797 37.7267C41.5105 43.3917 60.1059 45.2784 78.3227 43.532C78.0375 44.5117 77.7308 45.484 77.46 46.4685C73.0987 45.2446 68.4187 45.0341 64.0191 46.1807C59.3415 47.4216 55.0473 49.9203 51.4217 53.1253C47.0796 50.7887 42.227 49.2285 37.2667 49.2986C32.6921 49.2841 28.1822 50.8153 24.4272 53.4252C22.1962 47.4651 20.8112 41.2171 19.8694 34.9256Z" fill="#C34155"/>
<path d="M57.2016 57.9824C60.6667 55.2055 64.8626 53.0697 69.3557 52.9173C71.1673 52.8399 72.9933 53.0358 74.7474 53.5002C72.0156 59.7409 68.2941 65.8002 62.7706 69.893C58.0738 73.4197 52.0375 74.975 46.2337 74.3171C41.9203 73.8914 37.7771 72.0482 34.5085 69.1818C31.6737 66.7533 29.4691 63.6595 27.6407 60.4109C30.3437 58.0404 33.931 56.7463 37.5039 56.7681C40.7102 56.7609 43.8421 57.7163 46.7201 59.0878C45.0067 62.0558 43.3677 65.0721 41.87 68.1586C41.0049 69.9825 41.9419 72.3723 43.8038 73.1125C45.4285 73.8551 47.5349 73.1899 48.4095 71.6128C50.2667 67.9772 52.1262 64.3295 54.3428 60.8996C55.0904 59.7409 56.1712 58.8677 57.2016 57.9824Z" fill="#F7B5C4"/>
</svg>
