<svg width="96" height="63" viewBox="0 0 96 63" fill="none" xmlns="http://www.w3.org/2000/svg">
<path d="M15.347 0H17.3502C23.4433 0.222199 29.2475 4.08062 31.7476 9.68004C32.9236 11.9909 33.0146 14.6521 34.0137 17.0283C35.6371 21.3782 38.4104 25.5895 42.6406 27.7331C47.347 30.0126 52.8 29.7224 57.8055 28.7944C62.7772 27.8507 67.5746 26.1489 72.2159 24.1544C77.7392 21.5638 84.6283 22.4029 89.3815 26.23C93.5337 29.4427 95.9688 34.7389 95.7372 39.9985C95.5915 46.2383 91.6006 52.1619 85.9109 54.6558C76.0793 58.9455 65.6442 62.1687 54.8943 62.8249C45.799 63.3895 36.4592 61.957 28.2459 57.8816C23.0634 55.4008 18.3987 51.8874 14.4442 47.7153C8.48911 41.4049 4.20683 33.5939 1.65463 25.3098C0.915772 22.9362 0.348618 20.5051 0 18.04V16.0297C0.176911 11.9386 1.89398 7.94689 4.74797 5.02431C7.5265 2.12266 11.3847 0.415643 15.347 0ZM14.9567 8.00701C10.495 8.77033 7.17789 13.3947 7.87772 17.891C8.70764 22.578 10.3415 27.1031 12.4748 31.3458C16.5255 39.4652 22.9802 46.4997 31.1206 50.5699C38.8111 54.5172 47.6826 55.6596 56.2159 54.8649C65.4621 54.0049 74.4065 51.1372 82.8852 47.4278C84.5711 46.6357 85.9837 45.2842 86.8709 43.6399C88.6348 40.4795 88.1743 36.2629 85.7834 33.5521C83.8452 31.2909 80.7232 30.125 77.786 30.5981C76.2354 30.8177 74.8462 31.5836 73.4101 32.1588C67.9519 34.3807 62.2803 36.1766 56.4267 36.9556C52.7089 37.4392 48.9054 37.502 45.2137 36.7805C40.6296 35.9231 36.3057 33.6488 33.0901 30.2452C28.9249 25.864 26.3233 20.1443 25.1421 14.2443C24 9.94407 19.2885 7.04502 14.9567 8.00701Z" fill="black"/>
<path d="M14.9567 8.00701C19.2885 7.04502 24 9.94407 25.1421 14.2443C26.3233 20.1443 28.9249 25.864 33.0901 30.2452C36.3057 33.6488 40.6296 35.9231 45.2137 36.7805C48.9054 37.502 52.7089 37.4392 56.4267 36.9556C62.2803 36.1766 67.9519 34.3807 73.4101 32.1588C74.8462 31.5836 76.2354 30.8177 77.786 30.5981C80.7232 30.125 83.8452 31.2909 85.7834 33.5521C88.1743 36.2629 88.6348 40.4795 86.8709 43.6399C85.9837 45.2842 84.5711 46.6357 82.8852 47.4278C74.4065 51.1372 65.4621 54.0049 56.2159 54.8649C47.6826 55.6596 38.8111 54.5172 31.1206 50.5699C22.9802 46.4997 16.5255 39.4652 12.4748 31.3458C10.3415 27.1031 8.70764 22.578 7.87772 17.891C7.17789 13.3947 10.495 8.77033 14.9567 8.00701Z" fill="#FFCA05"/>
</svg>
