<svg width="235" height="254" viewBox="0 0 235 254" fill="none" xmlns="http://www.w3.org/2000/svg">
<path d="M171.082 3.96012C179.791 -0.752227 190.535 -1.16093 199.776 2.21207C207.908 5.24038 214.438 11.5481 218.963 18.8259C224.281 27.315 227.376 37.0007 229.352 46.7602C232.615 63.5119 232.748 80.761 230.959 97.6949C229.993 107.405 227.799 116.928 225.725 126.442C228.874 129.46 232.348 132.203 235 135.694V142.273C233.536 144.794 230.505 146.31 227.612 145.665C224.818 145.124 223.152 142.612 221.176 140.815C217.814 137.339 213.719 134.734 209.766 131.991C200.323 125.718 189.958 120.223 178.578 118.681C167.977 117.18 157.13 119.927 147.844 125.038C145.277 126.388 143.083 128.416 140.363 129.465C137.228 130.509 133.507 128.84 132.231 125.792C130.861 122.965 131.837 119.321 134.38 117.5C136.962 115.574 139.801 114.018 142.566 112.379C140.555 92.3424 140.422 71.9764 144.025 52.1029C145.962 41.6638 148.909 31.2888 154.059 21.9429C158.086 14.6651 163.67 7.95847 171.082 3.96012ZM170.116 22.2826C166.42 26.7931 163.896 32.1308 161.891 37.567C158.352 47.4496 156.548 57.864 155.572 68.2834C154.37 81.1796 154.596 94.1791 155.774 107.065C160.654 105.731 165.666 104.84 170.727 104.697C169.687 98.7191 169.007 92.6674 168.889 86.596C168.741 85.2271 170.392 84.8825 171.408 84.6018C177.977 83.484 184.921 84.2226 191.22 81.6966C194.133 80.5936 196.681 78.038 196.991 74.8324C197.351 71.6712 195.464 68.8152 193.364 66.6387C189.712 62.9408 185.222 60.2325 180.875 57.4307C178.11 55.6531 175.232 53.9395 172.965 51.5218C172.107 50.6453 171.521 49.3798 171.935 48.1537C174.473 36.1144 178.396 24.2227 184.857 13.6901C179.002 14.3942 173.778 17.7574 170.116 22.2826Z" fill="black"/>
<path d="M55.1243 1.35035C64.7152 -0.506023 75.1489 1.59163 82.995 7.49561C89.8013 12.6363 94.5869 20.0422 97.6721 27.9108C101.314 37.0105 103.01 46.7701 103.764 56.5099C104.666 68.6034 104 80.7659 102.394 92.7758C105.232 93.6522 108.022 94.706 110.634 96.1291C118.796 100.408 125.277 107.932 127.958 116.771C128.663 119.031 127.573 121.404 125.794 122.822C122.877 124.841 118.372 123.546 117.278 120.109C115.193 113.935 110.659 108.676 104.818 105.77C96.371 101.413 85.7353 101.27 77.3371 105.829C71.6545 108.823 67.6033 114.432 66.1395 120.636C64.7448 126.589 65.0503 132.907 66.7556 138.762C69.0178 146.394 74.4638 153.091 81.7038 156.503C88.1158 159.714 95.9619 159.403 102.399 156.419C107.16 154.233 110.816 150.151 113.133 145.523C113.951 143.834 115.02 142.002 116.938 141.416C119.333 140.525 122.049 141.519 123.571 143.494C124.35 145.06 124.843 146.931 124.118 148.615C120.299 157.606 112.734 165.15 103.34 168.154C96.2379 170.414 88.3819 170.803 81.2651 168.405C72.5417 165.618 65.1046 159.443 60.2894 151.712C58.7123 156.4 55.8439 160.536 52.3299 163.983C60.6393 169.66 69.4909 174.663 79.0177 178.012C95.1192 183.866 112.862 184.634 129.55 180.946C143.226 177.997 156.06 171.906 167.642 164.136C162.383 159.842 158.115 154.017 156.863 147.236C156.287 144.144 155.902 140.392 158.293 137.935C160.86 134.98 165.873 134.847 168.593 137.664C170.299 139.175 170.658 141.519 170.841 143.666C171.136 147.054 173.201 150.023 175.695 152.219C182.157 157.754 192.551 157.493 199.056 152.16C201.107 150.466 202.639 147.797 205.493 147.384C209.628 146.394 214.024 149.826 214.064 154.071C214.335 157.168 212.078 159.581 210.003 161.555C203.822 167.528 195.207 170.65 186.651 170.586C186.75 183.788 184.153 196.984 179.259 209.235C178.155 211.845 176.597 214.277 175.863 217.04C172.112 223.013 168.184 228.961 163.162 233.959C157.726 239.568 151.24 244.132 144.173 247.446C136.873 250.932 128.943 252.912 120.954 254H98.988C91.2799 252.902 83.6752 250.76 76.7555 247.16C69.6585 243.63 63.5274 238.494 57.7907 233.102C55.0061 229.163 51.7582 225.554 49.2643 221.403C40.1121 206.753 34.9717 189.795 33.2319 172.674C28.5745 173.353 23.8628 173.531 19.166 173.373C16.9678 173.378 14.6169 173.014 12.9462 171.453C9.83629 168.764 9.85601 163.407 13.0497 160.787C15.1837 158.694 18.3577 159 21.093 159.103C26.2729 159.211 31.5809 158.926 36.5044 157.168C40.4029 155.73 43.8873 152.948 45.8292 149.24C47.1352 146.719 47.0564 143.405 49.4812 141.544C51.0632 140.076 53.3008 139.875 55.356 139.83C53.8676 133.562 53.6261 127.023 54.6019 120.661C52.1032 119.799 49.5798 118.996 46.9874 118.465C38.5202 116.653 29.6489 117.603 21.5021 120.375C17.436 121.641 13.7347 123.763 10.0285 125.811C7.12069 127.486 3.0941 126.496 1.22619 123.729C-0.942351 120.833 -0.139005 116.273 2.88217 114.284C5.69142 112.472 8.73724 111.064 11.7338 109.606C11.4873 98.9653 11.65 88.3047 12.7589 77.713C14.2522 63.2313 17.0221 48.7742 22.335 35.1788C25.5977 26.8965 29.9545 18.9096 36.0806 12.3803C41.1767 6.97365 47.7661 2.77834 55.1243 1.35035ZM54.6808 15.6942C49.0968 17.8559 44.8533 22.386 41.5611 27.2412C36.5981 34.8587 33.4389 43.4906 31.0634 52.221C26.5094 69.4947 25.0013 87.443 25.2921 105.263C30.2452 104.175 35.3315 103.825 40.393 103.944C39.7474 97.6851 39.6045 91.3773 39.9248 85.0942C41.7188 83.6957 44.1042 83.8779 46.2432 83.809C52.0342 83.7647 58.0716 84.3408 63.5915 82.2087C66.8049 81.0269 69.2642 77.7376 68.934 74.2464C68.6137 70.9966 66.4599 68.3326 64.3012 66.0429C60.8266 62.5665 56.8099 59.7204 52.9065 56.761C50.6788 55.0721 48.4166 53.3634 46.6473 51.1771C45.8834 50.2366 45.3117 48.9662 45.8341 47.7697C49.2742 35.9174 54.0598 24.2916 61.354 14.2564C59.077 14.4336 56.805 14.8374 54.6808 15.6942ZM48.4216 178.558C48.6335 179.883 48.8405 181.202 49.0672 182.522C49.1313 181.38 49.1756 180.232 49.22 179.09C49.0228 178.957 48.6236 178.691 48.4216 178.558ZM150.259 189.504C137.869 194.433 124.601 197.186 111.26 197.462C94.7889 197.915 78.3031 194.123 63.488 186.988C63.4929 189.598 63.4683 192.208 63.5077 194.822C97.5637 203.829 133.635 204.567 168.189 197.925C170.151 191.543 171.501 184.969 172.078 178.317C165.138 182.645 157.879 186.496 150.259 189.504ZM58.0765 208.058C61.0385 213.78 64.6856 219.182 69.1607 223.835C73.3795 221.595 77.9532 219.989 82.6796 219.266C92.9112 217.66 103.414 219.916 112.729 224.214C115.587 221.388 118.712 218.832 122.093 216.646C100.526 216.454 78.8452 214.007 58.0765 208.058ZM126.085 231.384C123.187 233.821 120.333 236.465 118.515 239.838C131.822 238.45 144.946 232.797 154.02 222.786C151.452 222.486 148.86 222.368 146.287 222.584C138.781 223.092 131.856 226.735 126.085 231.384ZM82.2459 233.89C88.4213 237.312 95.3557 239.208 102.354 239.991C103 238.696 103.645 237.406 104.286 236.111C97.3567 233.319 89.5894 232.048 82.2459 233.89Z" fill="black"/>
<path d="M170.116 22.2826C173.778 17.7574 179.002 14.3942 184.857 13.6901C178.396 24.2227 174.473 36.1144 171.935 48.1537C171.521 49.3798 172.107 50.6453 172.965 51.5218C175.232 53.9395 178.11 55.6531 180.875 57.4307C185.222 60.2325 189.712 62.9408 193.364 66.6387C195.464 68.8152 197.351 71.6712 196.991 74.8324C196.681 78.038 194.133 80.5936 191.22 81.6966C184.921 84.2226 177.977 83.484 171.408 84.6018C170.392 84.8825 168.741 85.2271 168.889 86.596C169.007 92.6674 169.687 98.7191 170.727 104.697C165.666 104.84 160.654 105.731 155.774 107.065C154.596 94.1791 154.37 81.1796 155.572 68.2834C156.548 57.864 158.352 47.4496 161.891 37.567C163.896 32.1308 166.42 26.7931 170.116 22.2826Z" fill="white"/>
<path d="M54.6808 15.6942C56.805 14.8374 59.077 14.4336 61.354 14.2564C54.0598 24.2916 49.2742 35.9174 45.8341 47.7697C45.3117 48.9662 45.8834 50.2366 46.6473 51.1771C48.4166 53.3634 50.6788 55.0721 52.9065 56.761C56.8099 59.7204 60.8266 62.5665 64.3012 66.0429C66.4599 68.3326 68.6137 70.9966 68.934 74.2464C69.2642 77.7376 66.8049 81.0269 63.5915 82.2087C58.0716 84.3408 52.0342 83.7647 46.2432 83.809C44.1042 83.8779 41.7188 83.6957 39.9248 85.0942C39.6045 91.3773 39.7474 97.6851 40.393 103.944C35.3315 103.825 30.2452 104.175 25.2921 105.263C25.0013 87.443 26.5094 69.4947 31.0634 52.221C33.4389 43.4906 36.5981 34.8587 41.5611 27.2412C44.8533 22.386 49.0968 17.8559 54.6808 15.6942Z" fill="white"/>
<path d="M77.3371 105.829C85.7353 101.27 96.371 101.413 104.818 105.77C110.659 108.676 115.193 113.935 117.278 120.109C118.372 123.546 122.877 124.841 125.794 122.822L126.223 122.616C127.46 129.647 126.514 136.989 123.571 143.494C122.049 141.519 119.333 140.525 116.938 141.416C115.02 142.002 113.951 143.834 113.133 145.523C110.816 150.151 107.16 154.233 102.399 156.419C95.9619 159.403 88.1158 159.714 81.7038 156.503C74.4638 153.091 69.0178 146.394 66.7556 138.762C65.0503 132.907 64.7448 126.589 66.1395 120.636C67.6033 114.432 71.6545 108.823 77.3371 105.829Z" fill="#FFCA05"/>
<path d="M48.4216 178.558C48.6236 178.691 49.0228 178.957 49.22 179.09C49.1756 180.232 49.1313 181.38 49.0672 182.522C48.8405 181.202 48.6335 179.883 48.4216 178.558Z" fill="#C44055"/>
<path d="M58.0765 208.058C78.8452 214.007 100.526 216.454 122.093 216.646C118.712 218.832 115.587 221.388 112.729 224.214C103.414 219.916 92.9112 217.66 82.6796 219.266C77.9532 219.989 73.3795 221.595 69.1607 223.835C64.6856 219.182 61.0385 213.78 58.0765 208.058Z" fill="#C44055"/>
<path d="M150.259 189.504C157.879 186.496 165.138 182.645 172.078 178.317C171.501 184.969 170.151 191.543 168.189 197.925C133.635 204.567 97.5637 203.829 63.5077 194.822C63.4683 192.208 63.4929 189.598 63.488 186.988C78.3031 194.123 94.7889 197.915 111.26 197.462C124.601 197.186 137.869 194.433 150.259 189.504Z" fill="#FFF9F6"/>
<path d="M126.085 231.384C131.856 226.735 138.781 223.092 146.287 222.584C148.86 222.368 151.452 222.486 154.02 222.786C144.946 232.797 131.822 238.45 118.515 239.838C120.333 236.465 123.187 233.821 126.085 231.384Z" fill="#FFB8C6"/>
<path d="M82.2459 233.89C89.5894 232.048 97.3567 233.319 104.286 236.111C103.645 237.406 103 238.696 102.354 239.991C95.3557 239.208 88.4213 237.312 82.2459 233.89Z" fill="#FFB8C6"/>
</svg>
