<svg width="106" height="94" viewBox="0 0 106 94" fill="none" xmlns="http://www.w3.org/2000/svg">
<path d="M18.0999 0H20.3037C24.4897 0.253612 28.6106 1.82074 31.7898 4.55784C34.9137 7.18248 37.1367 10.8383 38.0447 14.8004C39.1815 20.7675 41.3853 26.5072 44.29 31.8403C47.7221 38.0801 52.3922 43.7313 58.281 47.825C65.2343 52.7082 73.7074 55.0912 82.1444 55.5793C85.0153 55.8305 87.9368 55.4788 90.7668 56.132C95.7356 57.1656 100.213 60.2711 102.939 64.5179C105.295 68.1307 106.359 72.5498 105.892 76.8301C105.55 80.2778 104.199 83.601 102.108 86.3645C99.1725 90.2548 94.6879 92.9608 89.8564 93.7383C88.3367 93.9896 86.7928 94.0278 85.2586 93.9848C76.9179 93.901 68.5653 92.8675 60.5281 90.6256C52.8305 88.4938 45.446 85.2328 38.7311 80.9238C25.9757 72.7795 15.8479 60.9099 9.03911 47.5116C5.57809 40.7526 2.89261 33.5988 1.08623 26.2297C0.585266 24.1027 0.0891146 21.9542 0 19.7602V18.2983C0.248076 12.7619 3.02749 7.41456 7.44468 4.02669C10.4746 1.63173 14.2656 0.332567 18.0999 0ZM17.2208 6.88581C13.9332 7.41935 10.872 9.30947 9.00539 12.0609C7.12435 14.7023 6.37531 18.0974 6.95094 21.2819C7.58678 24.8516 8.60076 28.3423 9.72794 31.7852C13.0131 41.4656 17.794 50.6865 24.179 58.7136C29.7835 65.7692 36.6189 71.8847 44.3935 76.5023C57.267 84.2207 72.4839 87.5201 87.4286 87.2808C91.9952 87.0822 96.2895 84.1537 98.1441 80.0074C99.6807 76.6865 99.6422 72.6766 97.9875 69.4059C96.475 66.2382 93.5125 63.8097 90.1165 62.8742C87.9055 62.2139 85.5789 62.4962 83.3101 62.3527C74.5696 62.0033 65.7786 59.9697 58.1485 55.6224C52.3536 52.3804 47.3295 47.8513 43.3025 42.6092C37.6883 35.2305 33.7672 26.6005 31.7344 17.583C31.2961 14.4104 29.6414 11.4173 27.1005 9.43389C24.3692 7.24708 20.6794 6.27809 17.2208 6.88581Z" fill="black"/>
<path d="M17.2208 6.88581C20.6794 6.27809 24.3692 7.24708 27.1005 9.43389C29.6414 11.4173 31.2961 14.4104 31.7344 17.583C33.7672 26.6005 37.6883 35.2305 43.3025 42.6092C47.3295 47.8513 52.3536 52.3804 58.1485 55.6224C65.7786 59.9697 74.5696 62.0033 83.3101 62.3527C85.5789 62.4962 87.9055 62.2139 90.1165 62.8742C93.5125 63.8097 96.475 66.2382 97.9875 69.4059C99.6422 72.6766 99.6807 76.6865 98.1441 80.0074C96.2895 84.1537 91.9952 87.0822 87.4286 87.2808C72.4839 87.5201 57.267 84.2207 44.3935 76.5023C36.6189 71.8847 29.7835 65.7692 24.179 58.7136C17.794 50.6865 13.0131 41.4656 9.72794 31.7852C8.60076 28.3423 7.58678 24.8516 6.95094 21.2819C6.37531 18.0974 7.12435 14.7023 9.00539 12.0609C10.872 9.30947 13.9332 7.41935 17.2208 6.88581Z" fill="#FFCA05"/>
</svg>
